<svg width="187" height="33" viewBox="0 0 187 33" fill="none" xmlns="http://www.w3.org/2000/svg">
<path d="M0.13575 25H5.51175V15.368H14.9198V25H20.2958V2.216H14.9198V11.016H5.51175V2.216H0.13575V25ZM25.9658 6.408C27.6618 6.408 28.8778 5.256 28.8778 3.592C28.8778 1.992 27.6618 0.807999 25.9658 0.807999C24.3018 0.807999 23.0858 1.992 23.0858 3.592C23.0858 5.256 24.3018 6.408 25.9658 6.408ZM23.5338 25H28.3338V8.616H23.5338V25ZM38.611 32.872C44.211 32.872 48.243 29.192 48.243 23.944V8.616H44.179L43.443 11.528C42.259 9.32 40.403 8.136 37.875 8.136C33.683 8.136 30.611 11.656 30.611 16.808C30.611 21.768 33.683 25.224 37.875 25.224C40.339 25.224 42.227 23.944 43.443 21.832V23.944C43.443 26.92 41.363 29.064 38.227 29.064C35.731 29.064 33.427 27.72 32.563 25.96L29.555 28.872C31.123 31.272 34.835 32.872 38.611 32.872ZM39.539 21.288C37.139 21.288 35.411 19.4 35.411 16.808C35.411 14.152 37.139 12.2 39.539 12.2C41.907 12.2 43.635 14.152 43.635 16.808C43.635 19.4 41.907 21.288 39.539 21.288ZM50.8745 25H55.7065V15.784C55.7065 13.704 57.2105 12.2 59.0985 12.2C60.9865 12.2 62.1385 13.608 62.1385 15.592V25H66.9385V14.344C66.9385 10.504 64.4425 8.104 60.9225 8.104C58.7785 8.104 56.6345 9.32 55.7065 11.336V1.256H50.8745V25ZM69.9795 25H75.3555V16.36H83.6115V12.2H75.3555V6.824H85.5315V2.216H69.9795V25ZM89.9345 6.408C91.6305 6.408 92.8465 5.256 92.8465 3.592C92.8465 1.992 91.6305 0.807999 89.9345 0.807999C88.2705 0.807999 87.0545 1.992 87.0545 3.592C87.0545 5.256 88.2705 6.408 89.9345 6.408ZM87.5025 25H92.3025V8.616H87.5025V25ZM100.18 25H106.1L112.34 8.616H107.38L103.188 20.968L98.9958 8.616H94.0358L100.18 25ZM121.162 8.104C116.01 8.104 112.33 11.56 112.33 16.68C112.33 21.864 116.394 25.512 121.93 25.512C125.514 25.512 128.746 24.072 129.962 21.864L127.082 19.816C126.282 21.032 124.458 21.96 122.378 21.96C119.722 21.96 117.61 20.424 117.29 18.152H129.546C129.61 17.832 129.61 17.16 129.61 16.744C129.61 11.56 126.314 8.104 121.162 8.104ZM121.098 11.656C123.114 11.656 124.458 13.192 124.714 15.272H117.29C117.674 13.096 119.082 11.656 121.098 11.656ZM132.451 25H134.339V4.776L147.011 25H149.603V2.504H147.715V22.728L135.043 2.504H132.451V25ZM153.451 25H155.339V14.536H165.419V12.872H155.339V4.232H167.339V2.504H153.451V25ZM176.658 25H178.546V4.232H186.322V2.504H168.914V4.232H176.658V25Z" fill="white"/>
</svg>
